<svg width="18" height="18" viewBox="0 0 18 18" fill="none" xmlns="http://www.w3.org/2000/svg">
<g id="calendar-icon.ff84145b.svg" clip-path="url(#clip0_1_18)">
<g id="4781851_calendar_date_day_event_month_icon">
<g id="Layer 2">
<path id="Path 9" d="M14.3907 17.196H3.92939C3.06642 17.1994 2.23737 16.8601 1.62436 16.2527C1.01135 15.6453 0.664515 14.8194 0.660034 13.9565V4.875C0.661725 4.44735 0.747632 4.02423 0.912848 3.62979C1.07806 3.23534 1.31936 2.8773 1.62294 2.57611C1.92653 2.27492 2.28647 2.03647 2.68221 1.87439C3.07795 1.7123 3.50174 1.62975 3.92939 1.63145H14.3907C14.8183 1.62975 15.2421 1.7123 15.6379 1.87439C16.0336 2.03647 16.3935 2.27492 16.6971 2.57611C17.0007 2.8773 17.242 3.23534 17.4072 3.62979C17.5724 4.02423 17.6583 4.44735 17.66 4.875V13.9565C17.6556 14.8194 17.3087 15.6453 16.6957 16.2527C16.0827 16.8601 15.2536 17.1994 14.3907 17.196ZM3.92939 2.92903C3.41129 2.9271 2.91363 3.13101 2.54583 3.49593C2.17804 3.86085 1.97023 4.3569 1.9681 4.875V13.9565C1.96873 14.2133 2.01998 14.4674 2.11892 14.7044C2.21786 14.9414 2.36254 15.1566 2.5447 15.3376C2.72685 15.5186 2.9429 15.662 3.1805 15.7595C3.4181 15.8569 3.67258 15.9066 3.92939 15.9056H14.3907C14.9088 15.9076 15.4064 15.7037 15.7742 15.3387C16.142 14.9738 16.3498 14.4778 16.352 13.9597V4.875C16.3498 4.3569 16.142 3.86085 15.7742 3.49593C15.4064 3.13101 14.9088 2.9271 14.3907 2.92903H3.92939Z" fill="#0B95D3"/>
<path id="Path 10" d="M14.4028 14.6589H11.5399C11.35 14.6589 11.1678 14.5834 11.0335 14.4491C10.8992 14.3148 10.8238 14.1327 10.8238 13.9427V11.0798C10.8238 10.8899 10.8992 10.7078 11.0335 10.5735C11.1678 10.4392 11.35 10.3637 11.5399 10.3637H14.4036C14.4976 10.3637 14.5908 10.3822 14.6776 10.4182C14.7645 10.4542 14.8435 10.507 14.91 10.5735C14.9765 10.64 15.0292 10.7189 15.0652 10.8058C15.1012 10.8927 15.1197 10.9858 15.1197 11.0798V13.9435C15.1196 14.0376 15.101 14.1307 15.0649 14.2175C15.0288 14.3044 14.976 14.3833 14.9094 14.4497C14.8428 14.5161 14.7638 14.5688 14.6769 14.6047C14.59 14.6406 14.4968 14.659 14.4028 14.6589ZM12.2552 13.2274H13.6867V11.7952H12.2552V13.2274Z" fill="#0B95D3"/>
<path id="Path 11" d="M17.006 6.82096H1.31407C1.13522 6.80506 0.968803 6.72278 0.847589 6.59031C0.726375 6.45784 0.659149 6.28479 0.659149 6.10524C0.659149 5.92568 0.726375 5.75263 0.847589 5.62016C0.968803 5.4877 1.13522 5.40541 1.31407 5.38951H17.006C17.1849 5.40541 17.3513 5.4877 17.4725 5.62016C17.5937 5.75263 17.6609 5.92568 17.6609 6.10524C17.6609 6.28479 17.5937 6.45784 17.4725 6.59031C17.3513 6.72278 17.1849 6.80506 17.006 6.82096Z" fill="#0B95D3"/>
<path id="Path 12" d="M5.9173 4.49516C5.82326 4.49516 5.73013 4.47664 5.64325 4.44065C5.55637 4.40466 5.47742 4.35191 5.41092 4.28541C5.34442 4.21891 5.29167 4.13997 5.25568 4.05308C5.21969 3.9662 5.20117 3.87308 5.20117 3.77903V0.91613C5.2074 0.730466 5.28554 0.554489 5.41909 0.425354C5.55263 0.296218 5.73113 0.22403 5.9169 0.22403C6.10267 0.22403 6.28117 0.296218 6.41471 0.425354C6.54825 0.554489 6.62639 0.730466 6.63262 0.91613V3.77903C6.63262 3.96882 6.55729 4.15085 6.42316 4.28513C6.28903 4.4194 6.10709 4.49495 5.9173 4.49516Z" fill="#0B95D3"/>
<path id="Path 13" d="M12.4036 4.49516C12.3096 4.49516 12.2164 4.47664 12.1295 4.44065C12.0427 4.40466 11.9637 4.35191 11.8972 4.28541C11.8307 4.21891 11.778 4.13997 11.742 4.05308C11.706 3.9662 11.6875 3.87308 11.6875 3.77903V0.91613C11.6937 0.730466 11.7718 0.554489 11.9054 0.425354C12.0389 0.296218 12.2174 0.22403 12.4032 0.22403C12.589 0.22403 12.7675 0.296218 12.901 0.425354C13.0346 0.554489 13.1127 0.730466 13.1189 0.91613V3.77903C13.1189 3.96882 13.0436 4.15085 12.9095 4.28513C12.7753 4.4194 12.5934 4.49495 12.4036 4.49516Z" fill="#0B95D3"/>
</g>
</g>
</g>
<defs>
<clipPath id="clip0_1_18">
<rect width="17" height="17" fill="white" transform="translate(0.660034 0.199997)"/>
</clipPath>
</defs>
</svg>
