<svg width="16" height="23" viewBox="0 0 16 23" fill="none" xmlns="http://www.w3.org/2000/svg">
<g clip-path="url(#clip0_1_201)">
<g clip-path="url(#clip1_1_201)">
<g clip-path="url(#clip2_1_201)">
<path d="M8.08 18.1599C6.8439 18.1599 5.63557 17.7933 4.6078 17.1066C3.58002 16.4199 2.77897 15.4438 2.30594 14.3018C1.83291 13.1598 1.70914 11.9031 1.95029 10.6908C2.19144 9.47846 2.78668 8.36485 3.66073 7.4908C4.53477 6.61675 5.64838 6.02152 6.86072 5.78037C8.07306 5.53922 9.32969 5.66299 10.4717 6.13602C11.6137 6.60905 12.5898 7.4101 13.2765 8.43787C13.9632 9.46565 14.3298 10.674 14.3298 11.9101C14.3298 13.5676 13.6713 15.1573 12.4993 16.3293C11.3272 17.5014 9.73754 18.1599 8.08 18.1599ZM8.70014 11.9101V8.7858H7.45489V13.1603H11.2055V11.9101H8.70014Z" fill="#C8C6C2"/>
</g>
</g>
</g>
<defs>
<clipPath id="clip0_1_201">
<rect width="15" height="22" fill="white" transform="translate(0.580002 0.910034)"/>
</clipPath>
<clipPath id="clip1_1_201">
<rect width="15" height="22" fill="white" transform="translate(0.580002 0.910034)"/>
</clipPath>
<clipPath id="clip2_1_201">
<rect width="15" height="15" fill="white" transform="translate(0.580002 4.41003)"/>
</clipPath>
</defs>
</svg>
