<svg width="14" height="13" viewBox="0 0 14 13" fill="none" xmlns="http://www.w3.org/2000/svg">
<g id="comment-light.bd31b019.svg" clip-path="url(#clip0_1_78)">
<path id="message" d="M11.6431 0.610535H2.97704C2.40279 0.612048 1.85249 0.84084 1.44643 1.2469C1.04036 1.65296 0.811572 2.20326 0.810059 2.77752L0.810059 8.19403C0.81283 8.76745 1.04218 9.31653 1.4481 9.72156C1.85403 10.1266 2.40361 10.3547 2.97704 10.3562V11.9805C2.97794 12.0868 3.0101 12.1905 3.06951 12.2787C3.12892 12.3668 3.21295 12.4356 3.31114 12.4763C3.40934 12.5171 3.51734 12.528 3.62172 12.5078C3.72609 12.4876 3.82221 12.4371 3.89811 12.3627L5.90458 10.3562H11.6459C12.2202 10.3547 12.7705 10.1259 13.1766 9.71987C13.5826 9.31381 13.8114 8.7635 13.8129 8.18925V2.77752C13.8114 2.20277 13.5822 1.65203 13.1755 1.24589C12.7689 0.839749 12.2178 0.611291 11.6431 0.610535ZM8.39451 7.10767H5.14594C5.00226 7.10767 4.86446 7.05059 4.76287 6.94899C4.66127 6.8474 4.60419 6.7096 4.60419 6.56592C4.60419 6.42224 4.66127 6.28445 4.76287 6.18285C4.86446 6.08125 5.00226 6.02418 5.14594 6.02418H8.39451C8.53819 6.02418 8.67598 6.08125 8.77758 6.18285C8.87918 6.28445 8.93625 6.42224 8.93625 6.56592C8.93625 6.7096 8.87918 6.8474 8.77758 6.94899C8.67598 7.05059 8.53819 7.10767 8.39451 7.10767ZM9.47704 4.94355H5.14307C5.0708 4.94787 4.99844 4.93681 4.93076 4.91111C4.86307 4.88541 4.80161 4.84565 4.75041 4.79446C4.69922 4.74327 4.65946 4.6818 4.63377 4.61412C4.60807 4.54644 4.59701 4.47407 4.60133 4.4018C4.59687 4.32946 4.60782 4.25699 4.63346 4.18919C4.65909 4.12139 4.69883 4.0598 4.75004 4.0085C4.80125 3.95721 4.86276 3.91736 4.93052 3.89161C4.99827 3.86585 5.07072 3.85477 5.14307 3.8591H9.47704C9.54931 3.85479 9.62168 3.86584 9.68936 3.89154C9.75704 3.91724 9.81851 3.957 9.8697 4.00819C9.9209 4.05938 9.96065 4.12085 9.98635 4.18853C10.012 4.25622 10.0231 4.32858 10.0188 4.40085C10.0232 4.47319 10.0123 4.54566 9.98666 4.61346C9.96102 4.68126 9.92129 4.74285 9.87008 4.79415C9.81887 4.84545 9.75736 4.88529 9.6896 4.91104C9.62185 4.9368 9.5494 4.94788 9.47704 4.94355Z" fill="#C6C6C6"/>
</g>
<defs>
<clipPath id="clip0_1_78">
<rect width="13" height="11.9089" fill="white" transform="translate(0.810059 0.610535)"/>
</clipPath>
</defs>
</svg>
