<svg width="21" height="17" viewBox="0 0 21 17" fill="none" xmlns="http://www.w3.org/2000/svg">
<g id="icon-cloud-sun.6212dc72.svg" clip-path="url(#clip0_1_6)">
<g id="Partly-Cloudy">
<g id="Group 612">
<path id="Oval-2" d="M9.37597 6.58382C9.29779 6.24079 9.14827 5.91807 8.93713 5.63665C8.72599 5.35522 8.45796 5.12141 8.15048 4.95043C7.84301 4.77944 7.50297 4.67511 7.15251 4.64423C6.80205 4.61334 6.44901 4.6566 6.11636 4.77117C5.78372 4.88575 5.47893 5.06908 5.22183 5.30924C4.96472 5.5494 4.76106 5.841 4.62411 6.16507C4.48715 6.48914 4.41996 6.83841 4.42691 7.19017C4.43386 7.54192 4.5148 7.88827 4.66446 8.20667" stroke="#FF9C05" stroke-width="1.34231" stroke-linecap="round"/>
<g id="Group-3">
<path id="Oval" d="M9.44508 7.56438C8.72101 7.21987 7.91633 7.08049 7.11857 7.16138C6.32081 7.24228 5.5605 7.54036 4.92032 8.0232C4.28014 8.50604 3.7846 9.15517 3.48759 9.89999C3.19058 10.6448 3.10347 11.4568 3.23573 12.2477C3.36799 13.0385 3.71456 13.778 4.23775 14.3857C4.76094 14.9933 5.44072 15.4459 6.20317 15.6942C6.96562 15.9424 7.78154 15.9769 8.56222 15.7938C9.34289 15.6108 10.0584 15.2172 10.631 14.6558" stroke="#FF9C05" stroke-width="1.34231"/>
<path id="Oval_2" d="M9.65919 13.443C10.3895 14.5156 11.4675 15.3034 12.7113 15.6735C13.955 16.0435 15.2883 15.9733 16.4862 15.4745C17.6841 14.9757 18.6733 14.0789 19.2869 12.9355C19.9004 11.7921 20.1007 10.472 19.854 9.19806C19.6073 7.92411 18.9287 6.77426 17.9327 5.94254C16.9366 5.11082 15.6842 4.64815 14.3867 4.63261C13.0891 4.61706 11.826 5.04959 10.8103 5.8572C9.79466 6.66482 9.08868 7.79808 8.81152 9.06575" stroke="#FF9C05" stroke-width="1.34231" stroke-linecap="round"/>
</g>
<path id="Path-4" d="M6.62623 2.75421V1.50116M9.8122 4.29048L10.7861 3.50187M2.65635 7.73015L1.43552 8.01137M3.44227 4.29048L2.46641 3.50254" stroke="#FF9C05" stroke-width="1.34231" stroke-linecap="round"/>
</g>
</g>
</g>
<defs>
<clipPath id="clip0_1_6">
<rect width="19.9984" height="15.75" fill="white" transform="translate(0.630798 0.830002)"/>
</clipPath>
</defs>
</svg>
