<svg width="20" height="21" viewBox="0 0 20 21" fill="none" xmlns="http://www.w3.org/2000/svg">
<path d="M13.55 1.14014H6.46C3.45 1.14014 1 3.58014 1 6.58014V13.7001C1 16.7001 3.45 19.1401 6.46 19.1401H13.54C16.56 19.1401 19 16.7001 19 13.7001V6.58014C19.01 3.58014 16.56 1.14014 13.55 1.14014ZM17.5 14.1401C17.5 16.0701 15.93 17.6401 14 17.6401H6C4.07 17.6401 2.5 16.0701 2.5 14.1401V6.14014C2.5 4.21014 4.07 2.64014 6 2.64014H14C15.93 2.64014 17.5 4.21014 17.5 6.14014V14.1401Z" fill="black" fill-opacity="0.2"/>
<path d="M14.87 6.49006C15.472 6.49006 15.96 6.00205 15.96 5.40006C15.96 4.79807 15.472 4.31006 14.87 4.31006C14.268 4.31006 13.78 4.79807 13.78 5.40006C13.78 6.00205 14.268 6.49006 14.87 6.49006Z" fill="black" fill-opacity="0.2"/>
<path d="M10.03 5.59033C7.48002 5.59033 5.40002 7.65033 5.40002 10.1903C5.40002 12.7403 7.47002 14.8003 10.03 14.8003C12.59 14.8003 14.66 12.7393 14.66 10.1903C14.65 7.65033 12.58 5.59033 10.03 5.59033ZM10.08 13.1403C8.42002 13.1403 7.08002 11.8003 7.08002 10.1503C7.08002 8.50033 8.42002 7.16033 10.08 7.16033C11.74 7.16033 13.08 8.50033 13.08 10.1503C13.08 11.8003 11.74 13.1403 10.08 13.1403Z" fill="black" fill-opacity="0.2"/>
</svg>
