<svg width="30" height="31" viewBox="0 0 30 31" fill="none" xmlns="http://www.w3.org/2000/svg">
<g clip-path="url(#clip0_1_855)">
<g clip-path="url(#clip1_1_855)">
<g clip-path="url(#clip2_1_855)">
<path d="M14.9996 26.2748C21.1824 26.2748 26.1946 21.2626 26.1946 15.0798C26.1946 8.89693 21.1824 3.88477 14.9996 3.88477C8.81673 3.88477 3.80457 8.89693 3.80457 15.0798C3.80457 21.2626 8.81673 26.2748 14.9996 26.2748Z" fill="white"/>
<path d="M14.9996 25.8443C20.9446 25.8443 25.764 21.0249 25.764 15.0798C25.764 9.13482 20.9446 4.31543 14.9996 4.31543C9.05456 4.31543 4.23517 9.13482 4.23517 15.0798C4.23517 21.0249 9.05456 25.8443 14.9996 25.8443Z" stroke="#707070" stroke-width="0.861153"/>
<path d="M15.0003 0.0800785C12.0334 0.0799082 9.13316 0.959524 6.66623 2.60769C4.19931 4.25585 2.27654 6.59854 1.14106 9.3395C0.00557724 12.0805 -0.291605 15.0966 0.287093 18.0064C0.865791 20.9163 2.29438 23.5892 4.39219 25.6871C6.49 27.785 9.16282 29.2138 12.0726 29.7926C14.9825 30.3715 17.9986 30.0745 20.7396 28.9392C23.4806 27.8039 25.8234 25.8812 27.4717 23.4144C29.12 20.9476 29.9998 18.0474 29.9998 15.0805C30.0004 13.1105 29.6128 11.1598 28.8592 9.33962C28.1056 7.51949 27.0008 5.86567 25.6079 4.47265C24.2149 3.07963 22.5612 1.97471 20.7411 1.22101C18.921 0.467321 16.9702 0.0796259 15.0003 0.0800785ZM12 21.8302V8.32993L20.9999 15.0796L12 21.8302Z" fill="#E00034"/>
</g>
</g>
</g>
<defs>
<clipPath id="clip0_1_855">
<rect width="30" height="30" fill="white" transform="translate(0 0.0800781)"/>
</clipPath>
<clipPath id="clip1_1_855">
<rect width="30" height="30" fill="white" transform="translate(0 0.0800781)"/>
</clipPath>
<clipPath id="clip2_1_855">
<rect width="30" height="30" fill="white" transform="translate(0 0.0800781)"/>
</clipPath>
</defs>
</svg>
