<svg width="21" height="21" viewBox="0 0 21 21" fill="none" xmlns="http://www.w3.org/2000/svg">
<path d="M19.3101 4.88014C18.6491 5.16914 17.9361 5.36914 17.1911 5.46014C17.9541 5.00014 18.5371 4.27914 18.8131 3.42014C18.1001 3.84014 17.3111 4.14914 16.4691 4.31014C15.7951 3.59014 14.8361 3.14014 13.7741 3.14014C11.7331 3.14014 10.0811 4.80014 10.0811 6.84014C10.0811 7.13014 10.1141 7.40914 10.1781 7.67914C7.10506 7.52014 4.38606 6.05914 2.56406 3.81914C2.24606 4.35914 2.06406 5.00014 2.06406 5.67914C2.06406 6.96014 2.71506 8.09014 3.70706 8.75014C3.10006 8.72914 2.53006 8.56914 2.03306 8.28914V8.32914C2.03306 10.1181 3.30706 11.6181 4.99606 11.9601C4.68606 12.0391 4.35906 12.0791 4.02306 12.0791C3.78506 12.0791 3.55506 12.0591 3.32806 12.0201C3.80006 13.4891 5.16206 14.5591 6.77906 14.5891C5.51506 15.5691 3.92206 16.1591 2.19206 16.1591C1.89306 16.1591 1.60006 16.1491 1.31006 16.1091C2.94506 17.1591 4.88606 17.7691 6.97206 17.7691C13.7641 17.7691 17.4801 12.1401 17.4801 7.26914C17.4801 7.10914 17.4761 6.94914 17.4671 6.78914C18.1891 6.26914 18.8141 5.61814 19.3101 4.88014Z" fill="black" fill-opacity="0.2"/>
</svg>
