<svg width="21" height="21" viewBox="0 0 21 21" fill="none" xmlns="http://www.w3.org/2000/svg">
<path d="M15.66 4.24015C16.66 4.34015 17.96 4.24015 18.66 5.04015C19.46 5.84015 19.56 7.14015 19.56 8.14015C19.66 9.34015 19.66 11.0402 19.66 12.1402C19.56 13.2402 19.66 14.5402 19.16 15.5402C18.66 16.6402 17.76 17.0402 16.66 17.1402C15.46 17.2402 8.06003 17.2402 5.66003 17.1402C4.56003 17.0402 3.26003 17.0402 2.46003 16.1402C1.76003 15.3402 1.76003 14.1402 1.66003 13.1402C1.66003 11.9402 1.66003 10.2402 1.66003 9.04015C1.66003 7.94015 1.66003 6.64015 2.16003 5.64015C2.66003 4.64015 3.66003 4.44015 4.76003 4.34015C5.96003 4.24015 13.26 4.14015 15.66 4.24015ZM8.66003 7.64015V13.6402L14.16 10.6402L8.66003 7.64015Z" fill="black" fill-opacity="0.2"/>
</svg>
